<?xml version="1.0" standalone="no"?>
<!DOCTYPE svg PUBLIC "-//W3C//DTD SVG 20010904//EN"
 "http://www.w3.org/TR/2001/REC-SVG-20010904/DTD/svg10.dtd">
<svg version="1.0" xmlns="http://www.w3.org/2000/svg"
 width="24.000000pt" height="24.000000pt" viewBox="0 0 24.000000 24.000000"
 preserveAspectRatio="xMidYMid meet">

<g transform="translate(0.000000,24.000000) scale(0.100000,-0.100000)"
fill="#ff6467" stroke="none">
<path d="M86 218 c-9 -12 -16 -32 -16 -43 0 -30 -26 -99 -39 -103 -18 -6 -13
-50 6 -55 26 -7 147 -2 162 7 14 9 6 66 -18 116 -10 19 -24 48 -32 65 -18 38
-42 43 -63 13z m49 2 c3 -5 -3 -10 -15 -10 -12 0 -18 5 -15 10 3 6 10 10 15
10 5 0 12 -4 15 -10z m52 -131 c-3 -9 0 -24 5 -34 8 -12 6 -20 -3 -26 -23 -15
-39 -10 -39 11 0 11 7 20 15 20 13 0 12 8 -5 53 -27 70 -25 81 6 32 13 -22 23
-47 21 -56z m-67 77 c0 -2 -9 -6 -20 -9 -11 -3 -18 -1 -14 4 5 9 34 13 34 5z
m28 -50 c10 -20 11 -31 3 -39 -6 -6 -11 -19 -11 -29 0 -26 -36 -23 -54 5 -16
25 -33 80 -18 59 6 -9 12 -6 20 13 15 33 42 29 60 -9z m-68 -77 c9 -16 7 -19
-15 -19 -29 0 -45 27 -24 40 16 10 25 5 39 -21z"/>
</g>
</svg>
